#!OML:ASF F:\VICON\USERDATA\INSTALL\Justin_Nancy\Justin_Nancy.ASF
:FULLY-SPECIFIED
:DEGREES
451
root 7.72177 17.2573 24.07 3.1237 36.8224 5.58877
lowerback 7.24844 -1.6843 -4.48384
upperback 0.699286 -2.52357 2.01424
thorax -3.05344 -1.18674 4.85787
lowerneck -17.922 -2.5102 -9.12514
upperneck 23.5342 -1.53513 3.04039
head 10.6478 -1.1237 2.40535
rclavicle -8.3092e-014 -2.78299e-014
rhumerus -37.7308 -17.1701 -74.6659
rradius 29.4178
rwrist 7.03227
rhand -12.7824 13.6786
rfingers 7.12502
rthumb 13.303 -15.8768
lclavicle -8.3092e-014 -2.78299e-014
lhumerus -26.1312 5.18539 82.1051
lradius 35.4676
lwrist -4.89697
lhand -17.3155 26.3677
lfingers 7.12502
lthumb 8.93094 56.1587
rfemur -27.8658 1.3968 15.9712
rtibia 21.7693
rfoot -1.58286 -11.292
rtoes 14.2471
lfemur 1.43876 -2.00683 -28.5116
ltibia 23.1885
lfoot -18.8335 3.46331
ltoes 0.0075198
452
root 7.79773 17.2588 24.196 3.16407 36.881 5.46074
lowerback 7.0789 -1.71552 -4.39207
upperback 0.755009 -2.54787 2.0886
thorax -2.89847 -1.20545 4.87668
lowerneck -18.0974 -2.54272 -9.3367
upperneck 23.4738 -1.52686 3.14054
head 10.6621 -1.12513 2.47676
rclavicle -3.26007e-014 1.82882e-014
rhumerus -37.6177 -17.1977 -74.6137
rradius 29.2129
rwrist 7.00262
rhand -12.6826 13.5972
rfingers 7.12502
rthumb 13.3991 -15.9519
lclavicle -3.26007e-014 1.82882e-014
lhumerus -26.1204 4.78953 82.1414
lradius 36.0601
lwrist -4.5129
lhand -17.1851 26.6798
lfingers 7.12502
lthumb 9.05671 56.4653
rfemur -27.3331 2.33916 15.5519
rtibia 18.202
rfoot -1.19865 -10.5847
rtoes 8.8743
lfemur 2.1215 -1.68206 -28.2993
ltibia 22.5754
lfoot -18.8354 3.30495
ltoes -1.65579
453
root 7.87274 17.2499 24.3205 3.36487 36.8514 5.66133
lowerback 6.95325 -1.72692 -4.58239
upperback 0.817526 -2.57242 2.07994
thorax -2.75241 -1.22152 4.9701
lowerneck -18.2446 -2.61432 -9.42641
upperneck 23.4613 -1.5894 3.15429
head 10.6918 -1.15953 2.48695
rclavicle 5.19822e-014 -4.77083e-015
rhumerus -37.5408 -17.1637 -74.6422
rradius 29.0012
rwrist 6.88406
rhand -13.0536 13.8877
rfingers 7.12502
rthumb 13.0415 -15.6846
lclavicle 5.19822e-014 -4.77083e-015
lhumerus -26.0334 4.67182 82.0636
lradius 36.408
lwrist -4.50293
lhand -16.8977 26.557
lfingers 7.12502
lthumb 9.33407 56.3304
rfemur -26.8131 3.59121 14.6997
rtibia 14.9486
rfoot -1.59664 -10.3716
rtoes 7.70443
lfemur 2.94097 -1.35183 -28.3538
ltibia 21.8653
lfoot -18.8647 2.87712
ltoes -1.99809
454
root 7.94665 17.2357 24.4334 3.61531 36.9889 5.84892
lowerback 6.93221 -1.81971 -4.61327
upperback 0.773014 -2.70117 1.99306
thorax -2.77446 -1.28423 4.90741
lowerneck -18.3248 -2.6601 -9.39598
upperneck 23.4935 -1.65555 3.1558
head 10.7233 -1.18737 2.47299
rclavicle -3.3197e-014 -5.56597e-015
rhumerus -37.6819 -17.1719 -74.7475
rradius 28.8825
rwrist 6.92247
rhand -13.638 14.5212
rfingers 7.12502
rthumb 12.4782 -15.0863
lclavicle -3.3197e-014 -5.56597e-015
lhumerus -25.9007 4.85633 81.8413
lradius 36.5208
lwrist -4.73078
lhand -16.8319 26.3763
lfingers 7.12502
lthumb 9.39749 56.1468
rfemur -26.0302 4.05962 14.2055
rtibia 11.9033
rfoot -1.93689 -9.86319
rtoes 4.35938
lfemur 3.67617 -1.38373 -28.4294
ltibia 21.2119
lfoot -18.7606 2.33712
ltoes -1.00808
455
root 8.01727 17.2354 24.5494 3.91351 37.0118 6.16749
lowerback 6.98494 -1.81933 -4.78327
upperback 0.696118 -2.72192 1.85965
thorax -2.88007 -1.28844 4.87047
lowerneck -18.3376 -2.72351 -9.55248
upperneck 23.4721 -1.74965 3.3541
head 10.7278 -1.21982 2.55708
rclavicle 1.2265e-013 -1.90833e-014
rhumerus -37.8823 -17.402 -74.7448
rradius 28.7723
rwrist 6.89864
rhand -13.545 14.4989
rfingers 7.12502
rthumb 12.5678 -15.1031
lclavicle 1.2265e-013 -1.90833e-014
lhumerus -25.6062 4.94898 81.6968
lradius 36.3086
lwrist -4.92614
lhand -16.9082 26.5971
lfingers 7.12502
lthumb 9.3239 56.3709
rfemur -25.3499 3.65633 14.0506
rtibia 9.434
rfoot -2.33644 -8.45413
rtoes 0.77057
lfemur 4.26527 -1.45526 -28.6841
ltibia 20.7078
lfoot -18.6126 2.36444
ltoes -1.17539
